Coordinates
version=1
nRows=10
nColumns=38
inDegrees=yes

Units are S.I. units (second, meters, Newtons, ...)
If the header above contains a line with 'inDegrees', this indicates whether rotational values are in degrees (yes) or radians (no).

endheader
time	pelvis_tilt	pelvis_list	pelvis_rotation	pelvis_tx	pelvis_ty	pelvis_tz	hip_flexion_r	hip_adduction_r	hip_rotation_r	knee_angle_r	ankle_angle_r	subtalar_angle_r	mtp_angle_r	hip_flexion_l	hip_adduction_l	hip_rotation_l	knee_angle_l	ankle_angle_l	subtalar_angle_l	mtp_angle_l	lumbar_extension	lumbar_bending	lumbar_rotation	arm_flex_r	arm_add_r	arm_rot_r	elbow_flex_r	pro_sup_r	wrist_flex_r	wrist_dev_r	arm_flex_l	arm_add_l	arm_rot_l	elbow_flex_l	pro_sup_l	wrist_flex_l	wrist_dev_l
      1.28400000	      4.02437195	      4.09807466	      6.74195233	     -0.81533809	      1.02957883	      0.22373345	    -12.31744750	     -0.76918819	     -5.81065839	    -70.57389533	    -10.47403983	    -13.35776834	      0.00000000	     19.29274460	      8.42754432	     -0.02730296	    -22.43450319	     -1.93273978	      9.36275968	      0.00000000	    -13.84213210	     -4.03152259	      4.65967243	    -26.67598190	    -26.51360740	    -10.58303740	    128.45374772	     60.00586988	      0.00000000	      0.00000000	    -46.30450351	    -27.61936653	      3.08237978	     84.60528061	     60.00014031	      0.00000000	      0.00000000
      1.28800000	      4.30813821	      4.57100856	      6.49888825	     -0.80174159	      1.02601374	      0.22341448	    -11.48162642	     -1.61034936	     -5.87880583	    -73.00068092	    -10.09522519	    -13.87720261	      0.00000000	     19.16210616	      8.93503521	     -0.07426205	    -24.75555746	      1.67019941	     10.05101025	      0.00000000	    -14.31224102	     -4.54751536	      4.46382485	    -26.95672021	    -26.49681736	    -10.33293859	    127.10064526	     60.00586988	      0.00000000	      0.00000000	    -45.50848405	    -27.76287230	      3.15013706	     84.89259687	     60.00014031	      0.00000000	      0.00000000
      1.29200000	      4.68135033	      4.95269915	      6.31302503	     -0.78826748	      1.02243543	      0.22344407	    -10.70092536	     -2.30038941	     -5.96718717	    -75.37194898	     -9.75124129	    -14.41255677	      0.00000000	     18.93269230	      9.36385632	     -0.11101259	    -26.94893903	      4.82689904	     10.04630908	      0.00000000	    -14.86868083	     -4.97927870	      4.18174333	    -27.18268722	    -26.43245849	     -9.88566982	    125.73441972	     60.00586988	      0.00000000	      0.00000000	    -44.72760300	    -28.03030019	      3.53310886	     85.05761418	     60.00014031	      0.00000000	      0.00000000
      1.29600000	      5.08999355	      5.30232876	      6.20436439	     -0.77490294	      1.01898137	      0.22290865	     -9.97892541	     -3.00883039	     -6.10999562	    -77.64160184	     -9.38117915	    -14.85761165	      0.00000000	     18.65928056	      9.81937127	     -0.03557140	    -28.93576050	      6.91938996	      9.66210423	      0.00000000	    -15.50954348	     -5.29891158	      3.81938628	    -27.39728849	    -26.40313310	     -9.62481711	    124.33205749	     60.00586988	      0.00000000	      0.00000000	    -43.70114034	    -28.14097845	      3.59872680	     85.16379148	     60.00014031	      0.00000000	      0.00000000
      1.30000000	      4.85635598	      5.80479497	      5.94447947	     -0.76185075	      1.01451065	      0.22301187	     -8.39262886	     -3.96180267	     -6.03082187	    -80.20186108	     -8.88392532	    -15.24260061	      0.00000000	     19.11639460	     10.39170811	     -0.27198899	    -30.82923176	      9.03510863	      9.17425931	      0.00000000	    -15.34323273	     -5.92196879	      3.92671456	    -27.95118453	    -26.06548049	     -9.46242587	    122.93335293	     60.00586988	      0.00000000	      0.00000000	    -42.55909698	    -28.74363282	      4.23344722	     85.51577065	     60.00014031	      0.00000000	      0.00000000
      1.30400000	      4.98754875	      6.16292040	      5.92741173	     -0.74909353	      1.01057167	      0.22278053	     -7.23714800	     -4.67186638	     -6.15904417	    -82.54072566	     -8.46749807	    -15.63495039	      0.00000000	     19.24945296	     10.84884817	     -0.36280739	    -32.70871798	     10.61602693	      8.60326610	      0.00000000	    -15.73719055	     -6.32518659	      3.47562281	    -28.08934547	    -26.02448682	     -9.03395989	    121.44144405	     60.00586988	      0.00000000	      0.00000000	    -41.56604363	    -28.93467053	      4.28403822	     85.85990189	     60.00014031	      0.00000000	      0.00000000
      1.30800000	      5.38128468	      6.40322593	      5.97918137	     -0.73628675	      1.00706485	      0.22248974	     -6.39549659	     -5.22002395	     -6.33524587	    -84.70037181	     -8.08292268	    -15.96175209	      0.00000000	     19.11023527	     11.17863455	     -0.48169325	    -34.63659027	     12.17928125	      8.12429174	      0.00000000	    -16.40697006	     -6.53945020	      2.98854578	    -28.26777755	    -25.80837808	     -8.95233681	    119.97934691	     60.00586988	      0.00000000	      0.00000000	    -40.52200288	    -28.92729261	      4.18040738	     86.05977528	     60.00014031	      0.00000000	      0.00000000
      1.31200000	      5.77235479	      6.65161067	      6.08561045	     -0.72358675	      1.00370657	      0.22242585	     -5.51782531	     -5.69061946	     -6.50802958	    -86.80004198	     -7.77600548	    -16.29535108	      0.00000000	     18.97219313	     11.48724371	     -0.64448193	    -36.58686816	     13.51296652	      7.77338986	      0.00000000	    -16.99327231	     -6.74830614	      2.50910600	    -28.44730512	    -25.68073527	     -8.57786744	    118.51774782	     60.00586988	      0.00000000	      0.00000000	    -39.21589382	    -29.09887519	      4.16648477	     86.22224618	     60.00014031	      0.00000000	      0.00000000
      1.31600000	      4.89536491	      6.91035705	      5.82217997	     -0.71131333	      0.99834865	      0.22273792	     -2.98819215	     -6.38203547	     -6.07432391	    -89.32532626	     -7.12319627	    -16.40724030	      0.00000000	     20.33189724	     11.71688777	     -1.49920102	    -38.69366540	     15.13910422	      7.63889205	      0.00000000	    -16.39396875	     -7.29810118	      2.23906199	    -28.50280697	    -25.61695375	     -7.99695032	    116.88941661	     60.00586988	      0.00000000	      0.00000000	    -38.31521733	    -29.30519664	      4.31024518	     86.61253868	     60.00014031	      0.00000000	      0.00000000
      1.32000000	      5.25038514	      7.10638174	      6.08779046	     -0.69836195	      0.99536727	      0.22222597	     -2.14783587	     -6.79364204	     -6.31671155	    -91.15184858	     -6.78455473	    -16.66358420	      0.00000000	     20.02686636	     11.94731809	     -1.63195474	    -40.41321029	     16.45001278	      7.49469399	      0.00000000	    -16.93752751	     -7.39033497	      1.56753915	    -28.63579641	    -25.50756420	     -7.77898475	    115.33429394	     60.00586988	      0.00000000	      0.00000000	    -36.98979932	    -29.39284462	      4.38070443	     86.69203228	     60.00014031	      0.00000000	      0.00000000
